#!OML:ASF H:\Terrain\Patient Classification 1\Terrain2\Thursday\justin.ASF
:FULLY-SPECIFIED
:DEGREES
3115
root 20.4708 20.8513 -8.55737 899.571 -32.2595 -535.902
lowerback 8.1388 0.945668 4.60227
upperback 3.63968 1.29347 3.92904
thorax -0.767975 0.507499 1.36573
lowerneck -11.896 1.41407 -9.16428
upperneck 39.5387 0.509421 1.33855
head 16.0346 -2.14099 1.97217
rclavicle 6.42074e-014 -2.3059e-014
rhumerus -24.5387 -3.86961 -75.0629
rradius 38.8019
rwrist -15.4145
rhand -25.1219 11.5312
rfingers 7.12502
rthumb 1.39383 -18.444
lclavicle 6.42074e-014 -2.3059e-014
lhumerus -44.2107 9.94032 81.112
lradius 30.8974
lwrist -0.681874
lhand -12.6958 19.0342
lfingers 7.12502
lthumb 13.3865 48.5841
rfemur -16.721 -9.91863 21.3971
rtibia 31.084
rfoot -11.6836 1.50573
rtoes 5.77739
lfemur -11.9196 -10.2696 -9.20465
ltibia 60.0544
lfoot -3.3955 -6.37028
ltoes 4.95503
3116
root 20.4919 20.8613 -8.61008 899.708 -32.7307 -535.77
lowerback 8.15964 1.09502 4.87199
upperback 3.64935 1.50902 3.95899
thorax -0.759424 0.615716 1.22802
lowerneck -11.8515 1.36093 -9.0902
upperneck 39.4028 0.507608 1.22471
head 15.9563 -2.11969 1.91394
rclavicle -2.34566e-014 -5.32743e-014
rhumerus -24.5656 -3.83859 -74.7219
rradius 39.4182
rwrist -15.3574
rhand -24.9249 11.6086
rfingers 7.12502
rthumb 1.58406 -18.3653
lclavicle -2.34566e-014 -5.32743e-014
lhumerus -43.8128 9.60664 81.4575
lradius 31.28
lwrist -0.605736
lhand -12.6369 19.6146
lfingers 7.12502
lthumb 13.4432 49.1608
rfemur -16.7754 -10.2489 21.7678
rtibia 31.4932
rfoot -12.2295 0.983728
rtoes 4.29263
lfemur -12.779 -9.11063 -9.1146
ltibia 59.9794
lfoot -4.35527 -5.99203
ltoes 5.35794
3117
root 20.5114 20.8609 -8.65827 899.639 -33.1583 -535.606
lowerback 8.44766 1.20951 5.17188
upperback 3.66426 1.69495 4.01841
thorax -0.891099 0.703598 1.1021
lowerneck -11.8828 1.38834 -9.26222
upperneck 39.4309 0.57367 1.39003
head 15.9713 -2.08482 2.03106
rclavicle -2.46493e-014 2.14687e-014
rhumerus -24.5406 -3.67265 -74.3469
rradius 39.9543
rwrist -15.0878
rhand -25.1906 11.7981
rfingers 7.12502
rthumb 1.32753 -18.1776
lclavicle -2.46493e-014 2.14687e-014
lhumerus -43.6406 9.18703 81.8537
lradius 31.8185
lwrist -0.283604
lhand -13.4859 19.8194
lfingers 7.12502
lthumb 12.6248 49.4179
rfemur -16.814 -10.2706 22.0258
rtibia 31.8352
rfoot -12.4847 0.630371
rtoes 4.94639
lfemur -13.3288 -7.92129 -9.07812
ltibia 59.8247
lfoot -5.60279 -5.66878
ltoes 4.45439
3118
root 20.5301 20.8621 -8.70603 899.463 -33.6947 -535.288
lowerback 8.59047 1.19667 5.40476
upperback 3.77892 1.67607 4.23805
thorax -0.848094 0.684674 1.2011
lowerneck -12.0108 1.49616 -9.42387
upperneck 39.4527 0.800571 1.49293
head 15.995 -1.98926 2.14554
rclavicle -3.73715e-014 1.35174e-014
rhumerus -24.2672 -2.84215 -74.063
rradius 40.4372
rwrist -15.3212
rhand -25.6024 11.8658
rfingers 7.12502
rthumb 0.929785 -18.1119
lclavicle -3.73715e-014 1.35174e-014
lhumerus -43.4332 9.29434 82.2083
lradius 32.3725
lwrist -0.123106
lhand -14.5916 19.7639
lfingers 7.12502
lthumb 11.5587 49.4252
rfemur -16.5365 -10.4357 22.4192
rtibia 31.5919
rfoot -12.5652 0.0520852
rtoes 4.02216
lfemur -13.8637 -6.82171 -8.94069
ltibia 59.6518
lfoot -5.60934 -4.94617
ltoes 8.54393
3119
root 20.5482 20.8681 -8.75657 899.537 -34.36 -535.159
lowerback 8.508 1.09567 5.37546
upperback 3.86089 1.51259 4.44668
thorax -0.725938 0.596731 1.45077
lowerneck -12.13 1.67488 -9.3387
upperneck 39.4083 1.21554 1.21905
head 15.9768 -1.82687 2.08121
rclavicle 1.06946e-013 1.59028e-014
rhumerus -23.9875 -1.91308 -73.8446
rradius 40.9261
rwrist -15.4937
rhand -25.5087 11.7148
rfingers 7.12502
rthumb 1.02024 -18.2625
lclavicle 1.06946e-013 1.59028e-014
lhumerus -43.2444 9.78103 82.4274
lradius 33.0126
lwrist 0.00538827
lhand -14.9547 19.6079
lfingers 7.12502
lthumb 11.2084 49.2885
rfemur -16.3946 -11.0325 22.6999
rtibia 31.2964
rfoot -12.7874 -0.380899
rtoes 1.93528
lfemur -14.5825 -5.84081 -9.01662
ltibia 59.3664
lfoot -7.7136 -4.24758
ltoes 4.94966
3120
root 20.5699 20.8273 -8.80231 899.629 -34.9989 -535.182
lowerback 8.49944 1.12822 5.45015
upperback 3.9393 1.55177 4.43829
thorax -0.636235 0.617991 1.39805
lowerneck -12.1983 1.73661 -9.07097
upperneck 39.3985 1.40513 0.897508
head 15.9846 -1.73878 1.92798
rclavicle 1.98785e-015 -7.4743e-014
rhumerus -23.8692 -1.93734 -73.6387
rradius 41.3334
rwrist -15.2884
rhand -25.3783 11.8814
rfingers 7.12502
rthumb 1.14616 -18.0952
lclavicle 1.98785e-015 -7.4743e-014
lhumerus -42.9668 9.35225 82.7325
lradius 33.7587
lwrist 0.547239
lhand -14.9148 18.698
lfingers 7.12502
lthumb 11.2469 48.3765
rfemur -16.9464 -10.0592 22.529
rtibia 31.2817
rfoot -12.623 -0.926565
rtoes 8.66719
lfemur -15.3348 -4.68976 -9.26908
ltibia 59.0437
lfoot -8.59543 -3.48335
ltoes 4.4562
3121
root 20.591 20.8151 -8.84909 899.589 -35.5951 -535.06
lowerback 8.54633 1.28578 5.79642
upperback 4.00141 1.78432 4.36019
thorax -0.578194 0.739488 1.10453
lowerneck -12.0859 1.66519 -8.98458
upperneck 39.3289 1.26781 0.983045
head 15.9284 -1.75098 1.93187
rclavicle -7.55382e-015 4.6118e-014
rhumerus -23.9834 -2.34824 -73.4347
rradius 41.7918
rwrist -15.2314
rhand -25.5323 12.046
rfingers 7.12502
rthumb 0.997422 -17.9314
lclavicle -7.55382e-015 4.6118e-014
lhumerus -42.5854 8.67013 82.9834
lradius 34.3295
lwrist 0.894821
lhand -14.9083 18.3171
lfingers 7.12502
lthumb 11.2532 47.9953
rfemur -16.727 -10.0726 22.7063
rtibia 31.0837
rfoot -12.889 -1.37205
rtoes 9.38903
lfemur -15.8899 -3.33624 -9.42251
ltibia 58.5845
lfoot -10.0058 -2.97376
ltoes -0.128696
3122
root 20.6038 20.8343 -8.89864 899.685 -36.2012 -535.012
lowerback 8.60858 1.40676 6.06496
upperback 3.90638 1.98814 4.27466
thorax -0.693057 0.846158 0.84669
lowerneck -11.819 1.67582 -8.83908
upperneck 39.2475 1.19076 1.10836
head 15.8224 -1.72872 1.94987
rclavicle 1.03368e-013 -9.54166e-015
rhumerus -24.3133 -2.54829 -73.2382
rradius 42.2602
rwrist -15.2301
rhand -25.6581 12.1305
rfingers 7.12502
rthumb 0.875976 -17.8475
lclavicle 1.03368e-013 -9.54166e-015
lhumerus -42.3817 8.28854 83.153
lradius 34.7936
lwrist 1.22812
lhand -14.9618 19.0501
lfingers 7.12502
lthumb 11.2016 48.7311
rfemur -16.1695 -11.7204 23.1023
rtibia 31.0771
rfoot -13.3151 -1.39691
rtoes 3.36786
lfemur -16.3538 -2.04506 -9.67162
ltibia 57.9164
lfoot -11.1991 -2.91402
ltoes 0.324704
3123
root 20.6198 20.7772 -8.94416 900.011 -36.812 -535.272
lowerback 8.60858 1.50123 5.94381
upperback 3.8161 2.12577 4.21674
thorax -0.787027 0.917798 0.840306
lowerneck -11.757 1.76435 -8.7001
upperneck 39.3036 1.31273 1.07314
head 15.8285 -1.65743 1.93152
rclavicle -3.18055e-014 -6.36111e-015
rhumerus -24.4359 -2.42453 -72.97
rradius 42.4807
rwrist -15.3179
rhand -25.5285 12.1404
rfingers 7.12502
rthumb 1.00118 -17.837
lclavicle -3.18055e-014 -6.36111e-015
lhumerus -42.129 8.02692 83.4009
lradius 35.1572
lwrist 1.69176
lhand -15.2709 19.4915
lfingers 7.12502
lthumb 10.9035 49.1884
rfemur -16.7444 -10.1639 22.6159
rtibia 31.2422
rfoot -13.0488 -1.80815
rtoes 16.5295
lfemur -17.0645 -0.809699 -10.1697
ltibia 57.3689
lfoot -11.89 -2.83779
ltoes 5.06754
3124
root 20.6399 20.7605 -8.99101 900.205 -37.4545 -535.567
lowerback 8.73196 1.58806 5.70196
upperback 3.83278 2.23759 4.19157
thorax -0.845009 0.972951 0.935542
lowerneck -11.9053 1.80113 -8.73309
upperneck 39.4553 1.3883 1.15018
head 15.9362 -1.61981 1.98735
rclavicle 1.33583e-013 3.81667e-014
rhumerus -24.3741 -2.2348 -72.7181
rradius 42.5837
rwrist -15.6562
rhand -25.3046 12.1712
rfingers 7.12502
rthumb 1.21738 -17.8051
lclavicle 1.33583e-013 3.81667e-014
lhumerus -41.8434 7.8385 83.5713
lradius 35.5426
lwrist 1.91887
lhand -15.6456 19.6578
lfingers 7.12502
lthumb 10.5421 49.3734
rfemur -16.8094 -10.4146 22.4898
rtibia 31.6698
rfoot -13.3804 -2.32498
rtoes 15.3462
lfemur -17.4819 0.440491 -10.7516
ltibia 56.575
lfoot -12.8925 -2.47033
ltoes 3.9464
3125
root 20.6585 20.744 -9.03634 900.061 -38.1203 -535.397
lowerback 8.93172 1.5802 5.8389
upperback 3.83528 2.25069 4.23496
thorax -0.947378 0.975827 0.89845
lowerneck -12.0501 1.90874 -8.68274
upperneck 39.6253 1.53844 1.23142
head 16.0471 -1.54193 2.04214
rclavicle -1.0297e-013 3.97569e-014
rhumerus -24.3604 -2.14141 -72.6025
rradius 42.708
rwrist -15.7383
rhand -25.2779 12.4415
rfingers 7.12502
rthumb 1.24316 -17.5347
lclavicle -1.0297e-013 3.97569e-014
lhumerus -41.7841 7.69348 83.6014
lradius 36.2026
lwrist 2.45158
lhand -15.8341 19.8839
lfingers 7.12502
lthumb 10.3602 49.6087
rfemur -16.6402 -10.7611 22.7792
rtibia 31.7728
rfoot -13.5375 -2.96098
rtoes 13.1185
lfemur -17.8406 1.86437 -10.9637
ltibia 55.8211
lfoot -14.0793 -2.23374
ltoes -2.12647
